<mxfile host="app.diagrams.net" agent="Mozilla/5.0 (Windows NT 10.0; Win64; x64; rv:138.0) Gecko/20100101 Firefox/138.0" version="27.1.4">
  <diagram name="第 1 页" id="TnrashfHeP5VHiUqmkV1">
    <mxGraphModel dx="1210" dy="751" grid="1" gridSize="10" guides="1" tooltips="1" connect="1" arrows="1" fold="1" page="1" pageScale="1" pageWidth="827" pageHeight="1169" math="0" shadow="0">
      <root>
        <mxCell id="0" />
        <mxCell id="1" parent="0" />
        <mxCell id="jGrYwkBsxawVjY5z8quS-3" value="" style="edgeStyle=orthogonalEdgeStyle;rounded=0;orthogonalLoop=1;jettySize=auto;html=1;" edge="1" parent="1" source="jGrYwkBsxawVjY5z8quS-1" target="jGrYwkBsxawVjY5z8quS-2">
          <mxGeometry relative="1" as="geometry" />
        </mxCell>
        <mxCell id="jGrYwkBsxawVjY5z8quS-1" value="工单分配工厂" style="rounded=0;whiteSpace=wrap;html=1;" vertex="1" parent="1">
          <mxGeometry x="140" y="280" width="120" height="60" as="geometry" />
        </mxCell>
        <mxCell id="jGrYwkBsxawVjY5z8quS-5" value="" style="edgeStyle=orthogonalEdgeStyle;rounded=0;orthogonalLoop=1;jettySize=auto;html=1;" edge="1" parent="1" source="jGrYwkBsxawVjY5z8quS-2" target="jGrYwkBsxawVjY5z8quS-4">
          <mxGeometry relative="1" as="geometry" />
        </mxCell>
        <mxCell id="jGrYwkBsxawVjY5z8quS-6" value="否" style="edgeLabel;html=1;align=center;verticalAlign=middle;resizable=0;points=[];" vertex="1" connectable="0" parent="jGrYwkBsxawVjY5z8quS-5">
          <mxGeometry x="-0.2" relative="1" as="geometry">
            <mxPoint as="offset" />
          </mxGeometry>
        </mxCell>
        <mxCell id="jGrYwkBsxawVjY5z8quS-8" value="" style="edgeStyle=orthogonalEdgeStyle;rounded=0;orthogonalLoop=1;jettySize=auto;html=1;" edge="1" parent="1" source="jGrYwkBsxawVjY5z8quS-2" target="jGrYwkBsxawVjY5z8quS-7">
          <mxGeometry relative="1" as="geometry" />
        </mxCell>
        <mxCell id="jGrYwkBsxawVjY5z8quS-2" value="是否东南亚半集货工厂" style="rhombus;whiteSpace=wrap;html=1;rounded=0;" vertex="1" parent="1">
          <mxGeometry x="310" y="270" width="80" height="80" as="geometry" />
        </mxCell>
        <mxCell id="jGrYwkBsxawVjY5z8quS-12" value="" style="edgeStyle=orthogonalEdgeStyle;rounded=0;orthogonalLoop=1;jettySize=auto;html=1;" edge="1" parent="1" source="jGrYwkBsxawVjY5z8quS-4" target="jGrYwkBsxawVjY5z8quS-11">
          <mxGeometry relative="1" as="geometry" />
        </mxCell>
        <mxCell id="jGrYwkBsxawVjY5z8quS-4" value="&lt;div&gt;入库仓:母仓&lt;/div&gt;&lt;div&gt;下发入库单&lt;/div&gt;" style="whiteSpace=wrap;html=1;rounded=0;" vertex="1" parent="1">
          <mxGeometry x="290" y="540" width="120" height="60" as="geometry" />
        </mxCell>
        <mxCell id="jGrYwkBsxawVjY5z8quS-16" value="" style="edgeStyle=orthogonalEdgeStyle;rounded=0;orthogonalLoop=1;jettySize=auto;html=1;" edge="1" parent="1" source="jGrYwkBsxawVjY5z8quS-7" target="jGrYwkBsxawVjY5z8quS-15">
          <mxGeometry relative="1" as="geometry" />
        </mxCell>
        <mxCell id="jGrYwkBsxawVjY5z8quS-17" value="是" style="edgeLabel;html=1;align=center;verticalAlign=middle;resizable=0;points=[];" vertex="1" connectable="0" parent="jGrYwkBsxawVjY5z8quS-16">
          <mxGeometry x="-0.4333" relative="1" as="geometry">
            <mxPoint as="offset" />
          </mxGeometry>
        </mxCell>
        <mxCell id="jGrYwkBsxawVjY5z8quS-26" style="edgeStyle=orthogonalEdgeStyle;rounded=0;orthogonalLoop=1;jettySize=auto;html=1;entryX=0.5;entryY=1;entryDx=0;entryDy=0;" edge="1" parent="1" source="jGrYwkBsxawVjY5z8quS-7" target="jGrYwkBsxawVjY5z8quS-11">
          <mxGeometry relative="1" as="geometry">
            <Array as="points">
              <mxPoint x="720" y="310" />
              <mxPoint x="720" y="810" />
              <mxPoint x="350" y="810" />
            </Array>
          </mxGeometry>
        </mxCell>
        <mxCell id="jGrYwkBsxawVjY5z8quS-7" value="订单内工单是否全部分配完成" style="rhombus;whiteSpace=wrap;html=1;rounded=0;" vertex="1" parent="1">
          <mxGeometry x="510" y="270" width="80" height="80" as="geometry" />
        </mxCell>
        <mxCell id="jGrYwkBsxawVjY5z8quS-27" style="edgeStyle=orthogonalEdgeStyle;rounded=0;orthogonalLoop=1;jettySize=auto;html=1;entryX=0.5;entryY=1;entryDx=0;entryDy=0;" edge="1" parent="1" source="jGrYwkBsxawVjY5z8quS-9" target="jGrYwkBsxawVjY5z8quS-1">
          <mxGeometry relative="1" as="geometry" />
        </mxCell>
        <mxCell id="jGrYwkBsxawVjY5z8quS-9" value="开始" style="rounded=0;whiteSpace=wrap;html=1;fillColor=#dae8fc;strokeColor=#6c8ebf;" vertex="1" parent="1">
          <mxGeometry x="140" y="400" width="120" height="60" as="geometry" />
        </mxCell>
        <mxCell id="jGrYwkBsxawVjY5z8quS-11" value="结束" style="whiteSpace=wrap;html=1;rounded=0;fillColor=#ffe6cc;strokeColor=#d79b00;" vertex="1" parent="1">
          <mxGeometry x="290" y="700" width="120" height="60" as="geometry" />
        </mxCell>
        <mxCell id="jGrYwkBsxawVjY5z8quS-19" value="" style="edgeStyle=orthogonalEdgeStyle;rounded=0;orthogonalLoop=1;jettySize=auto;html=1;" edge="1" parent="1" source="jGrYwkBsxawVjY5z8quS-15" target="jGrYwkBsxawVjY5z8quS-18">
          <mxGeometry relative="1" as="geometry" />
        </mxCell>
        <mxCell id="jGrYwkBsxawVjY5z8quS-15" value="遍历订单内所有已分配的半集货工厂" style="whiteSpace=wrap;html=1;rounded=0;" vertex="1" parent="1">
          <mxGeometry x="490" y="400" width="120" height="60" as="geometry" />
        </mxCell>
        <mxCell id="jGrYwkBsxawVjY5z8quS-20" style="edgeStyle=orthogonalEdgeStyle;rounded=0;orthogonalLoop=1;jettySize=auto;html=1;entryX=1;entryY=0.5;entryDx=0;entryDy=0;" edge="1" parent="1" source="jGrYwkBsxawVjY5z8quS-18" target="jGrYwkBsxawVjY5z8quS-4">
          <mxGeometry relative="1" as="geometry" />
        </mxCell>
        <mxCell id="jGrYwkBsxawVjY5z8quS-21" value="否" style="edgeLabel;html=1;align=center;verticalAlign=middle;resizable=0;points=[];" vertex="1" connectable="0" parent="jGrYwkBsxawVjY5z8quS-20">
          <mxGeometry x="-0.1867" relative="1" as="geometry">
            <mxPoint as="offset" />
          </mxGeometry>
        </mxCell>
        <mxCell id="jGrYwkBsxawVjY5z8quS-23" value="" style="edgeStyle=orthogonalEdgeStyle;rounded=0;orthogonalLoop=1;jettySize=auto;html=1;" edge="1" parent="1" source="jGrYwkBsxawVjY5z8quS-18" target="jGrYwkBsxawVjY5z8quS-22">
          <mxGeometry relative="1" as="geometry" />
        </mxCell>
        <mxCell id="jGrYwkBsxawVjY5z8quS-24" value="是" style="edgeLabel;html=1;align=center;verticalAlign=middle;resizable=0;points=[];" vertex="1" connectable="0" parent="jGrYwkBsxawVjY5z8quS-23">
          <mxGeometry x="-0.2667" y="-1" relative="1" as="geometry">
            <mxPoint as="offset" />
          </mxGeometry>
        </mxCell>
        <mxCell id="jGrYwkBsxawVjY5z8quS-18" value="是否单一工厂" style="rhombus;whiteSpace=wrap;html=1;rounded=0;" vertex="1" parent="1">
          <mxGeometry x="510" y="530" width="80" height="80" as="geometry" />
        </mxCell>
        <mxCell id="jGrYwkBsxawVjY5z8quS-25" style="edgeStyle=orthogonalEdgeStyle;rounded=0;orthogonalLoop=1;jettySize=auto;html=1;entryX=1;entryY=0.5;entryDx=0;entryDy=0;" edge="1" parent="1" source="jGrYwkBsxawVjY5z8quS-22" target="jGrYwkBsxawVjY5z8quS-11">
          <mxGeometry relative="1" as="geometry" />
        </mxCell>
        <mxCell id="jGrYwkBsxawVjY5z8quS-22" value="&lt;div&gt;入库仓:工厂仓&lt;/div&gt;&lt;div&gt;下发入库单&lt;/div&gt;" style="whiteSpace=wrap;html=1;rounded=0;" vertex="1" parent="1">
          <mxGeometry x="490" y="700" width="120" height="60" as="geometry" />
        </mxCell>
      </root>
    </mxGraphModel>
  </diagram>
</mxfile>
